<mxfile host="Electron" modified="2024-09-06T14:09:53.121Z" agent="Mozilla/5.0 (Windows NT 10.0; Win64; x64) AppleWebKit/537.36 (KHTML, like Gecko) draw.io/24.0.4 Chrome/120.0.6099.109 Electron/28.1.0 Safari/537.36" etag="_rNO67_5i6AKficeALUl" version="24.0.4" type="device">
  <diagram name="Page-1" id="_5OD_H1pg-j9sjn3mAq2">
    <mxGraphModel dx="4200" dy="4284" grid="1" gridSize="10" guides="1" tooltips="1" connect="1" arrows="1" fold="1" page="1" pageScale="1" pageWidth="6500" pageHeight="1800" math="0" shadow="0">
      <root>
        <mxCell id="0" />
        <mxCell id="1" parent="0" />
        <mxCell id="P7jncR9pwjDkhTuc6ath-14" style="edgeStyle=orthogonalEdgeStyle;rounded=0;orthogonalLoop=1;jettySize=auto;html=1;elbow=vertical;exitX=0.75;exitY=1;exitDx=0;exitDy=0;entryX=0.75;entryY=0;entryDx=0;entryDy=0;" edge="1" parent="1" source="P7jncR9pwjDkhTuc6ath-1" target="P7jncR9pwjDkhTuc6ath-3">
          <mxGeometry relative="1" as="geometry" />
        </mxCell>
        <mxCell id="P7jncR9pwjDkhTuc6ath-1" value="Roaming randomly&lt;div&gt;(looking for a target)&lt;/div&gt;" style="rounded=0;whiteSpace=wrap;html=1;fontSize=16;" vertex="1" parent="1">
          <mxGeometry x="690" y="450" width="180" height="80" as="geometry" />
        </mxCell>
        <mxCell id="P7jncR9pwjDkhTuc6ath-2" value="Thieves" style="text;html=1;align=center;verticalAlign=middle;whiteSpace=wrap;rounded=0;fontSize=38;" vertex="1" parent="1">
          <mxGeometry x="680" y="70" width="160" height="40" as="geometry" />
        </mxCell>
        <mxCell id="P7jncR9pwjDkhTuc6ath-22" style="edgeStyle=orthogonalEdgeStyle;rounded=0;orthogonalLoop=1;jettySize=auto;html=1;entryX=0.5;entryY=0;entryDx=0;entryDy=0;elbow=vertical;" edge="1" parent="1" source="P7jncR9pwjDkhTuc6ath-3" target="P7jncR9pwjDkhTuc6ath-21">
          <mxGeometry relative="1" as="geometry" />
        </mxCell>
        <mxCell id="P7jncR9pwjDkhTuc6ath-3" value="Locking onto target" style="rounded=0;whiteSpace=wrap;html=1;fontSize=16;" vertex="1" parent="1">
          <mxGeometry x="690" y="650" width="180" height="80" as="geometry" />
        </mxCell>
        <mxCell id="P7jncR9pwjDkhTuc6ath-11" style="edgeStyle=orthogonalEdgeStyle;rounded=0;orthogonalLoop=1;jettySize=auto;html=1;entryX=0.5;entryY=0;entryDx=0;entryDy=0;elbow=vertical;exitX=0.5;exitY=1;exitDx=0;exitDy=0;" edge="1" parent="1" source="P7jncR9pwjDkhTuc6ath-1" target="P7jncR9pwjDkhTuc6ath-1">
          <mxGeometry relative="1" as="geometry">
            <Array as="points">
              <mxPoint x="780" y="570" />
              <mxPoint x="660" y="570" />
              <mxPoint x="660" y="420" />
              <mxPoint x="780" y="420" />
            </Array>
          </mxGeometry>
        </mxCell>
        <mxCell id="P7jncR9pwjDkhTuc6ath-12" value="No acceptable target spotted" style="text;html=1;align=center;verticalAlign=middle;whiteSpace=wrap;rounded=0;fontSize=17;" vertex="1" parent="1">
          <mxGeometry x="440" y="475" width="210" height="30" as="geometry" />
        </mxCell>
        <mxCell id="P7jncR9pwjDkhTuc6ath-15" value="Target spotted" style="text;html=1;align=center;verticalAlign=middle;whiteSpace=wrap;rounded=0;fontSize=17;" vertex="1" parent="1">
          <mxGeometry x="690" y="610" width="120" height="30" as="geometry" />
        </mxCell>
        <mxCell id="P7jncR9pwjDkhTuc6ath-18" style="edgeStyle=orthogonalEdgeStyle;rounded=0;orthogonalLoop=1;jettySize=auto;html=1;elbow=vertical;shape=link;" edge="1" parent="1" source="P7jncR9pwjDkhTuc6ath-17">
          <mxGeometry relative="1" as="geometry">
            <mxPoint x="820" y="595" as="targetPoint" />
          </mxGeometry>
        </mxCell>
        <mxCell id="P7jncR9pwjDkhTuc6ath-17" value="What is an acceptable target? How is it picked?&lt;div&gt;&lt;br&gt;&lt;/div&gt;&lt;div&gt;- People in crowd/alone people&lt;/div&gt;&lt;div&gt;&lt;br&gt;&lt;/div&gt;&lt;div&gt;- people not in FOV&lt;/div&gt;" style="shape=process;whiteSpace=wrap;html=1;backgroundOutline=1;fontSize=16;fillColor=#1ba1e2;fontColor=#ffffff;strokeColor=#006EAF;" vertex="1" parent="1">
          <mxGeometry x="1470" y="310" width="230" height="320" as="geometry" />
        </mxCell>
        <mxCell id="P7jncR9pwjDkhTuc6ath-20" style="edgeStyle=orthogonalEdgeStyle;rounded=0;orthogonalLoop=1;jettySize=auto;html=1;entryX=1;entryY=0.5;entryDx=0;entryDy=0;elbow=vertical;shape=link;" edge="1" parent="1" source="P7jncR9pwjDkhTuc6ath-19" target="P7jncR9pwjDkhTuc6ath-1">
          <mxGeometry relative="1" as="geometry" />
        </mxCell>
        <mxCell id="P7jncR9pwjDkhTuc6ath-19" value="Sporadic movement with lots of orientation changes." style="shape=process;whiteSpace=wrap;html=1;backgroundOutline=1;fontSize=16;fillColor=#1ba1e2;fontColor=#ffffff;strokeColor=#006EAF;" vertex="1" parent="1">
          <mxGeometry x="1180" y="250" width="230" height="130" as="geometry" />
        </mxCell>
        <mxCell id="P7jncR9pwjDkhTuc6ath-24" style="edgeStyle=orthogonalEdgeStyle;rounded=0;orthogonalLoop=1;jettySize=auto;html=1;elbow=vertical;" edge="1" parent="1" source="P7jncR9pwjDkhTuc6ath-21" target="P7jncR9pwjDkhTuc6ath-23">
          <mxGeometry relative="1" as="geometry" />
        </mxCell>
        <mxCell id="P7jncR9pwjDkhTuc6ath-29" style="edgeStyle=orthogonalEdgeStyle;rounded=0;orthogonalLoop=1;jettySize=auto;html=1;entryX=1;entryY=0.5;entryDx=0;entryDy=0;elbow=vertical;" edge="1" parent="1" source="P7jncR9pwjDkhTuc6ath-21" target="P7jncR9pwjDkhTuc6ath-26">
          <mxGeometry relative="1" as="geometry" />
        </mxCell>
        <mxCell id="P7jncR9pwjDkhTuc6ath-21" value="Closing distance" style="rounded=0;whiteSpace=wrap;html=1;fontSize=16;" vertex="1" parent="1">
          <mxGeometry x="690" y="800" width="180" height="80" as="geometry" />
        </mxCell>
        <mxCell id="P7jncR9pwjDkhTuc6ath-25" style="edgeStyle=orthogonalEdgeStyle;rounded=0;orthogonalLoop=1;jettySize=auto;html=1;entryX=1;entryY=0.5;entryDx=0;entryDy=0;elbow=vertical;" edge="1" parent="1" source="P7jncR9pwjDkhTuc6ath-23" target="P7jncR9pwjDkhTuc6ath-21">
          <mxGeometry relative="1" as="geometry">
            <Array as="points">
              <mxPoint x="960" y="1060" />
              <mxPoint x="960" y="841" />
              <mxPoint x="870" y="841" />
            </Array>
          </mxGeometry>
        </mxCell>
        <mxCell id="P7jncR9pwjDkhTuc6ath-46" style="edgeStyle=orthogonalEdgeStyle;rounded=0;orthogonalLoop=1;jettySize=auto;html=1;entryX=0.5;entryY=1;entryDx=0;entryDy=0;elbow=vertical;exitX=1;exitY=0.75;exitDx=0;exitDy=0;" edge="1" parent="1" source="P7jncR9pwjDkhTuc6ath-23" target="P7jncR9pwjDkhTuc6ath-44">
          <mxGeometry relative="1" as="geometry" />
        </mxCell>
        <mxCell id="P7jncR9pwjDkhTuc6ath-23" value="&lt;div&gt;Evaluating the theft:&lt;/div&gt;&lt;div&gt;&lt;br&gt;&lt;/div&gt;- Scanning for surroundings (citizens noticing them)&lt;div&gt;&lt;br&gt;&lt;/div&gt;&lt;div&gt;- Confirming the target unawarness&lt;/div&gt;" style="rounded=0;whiteSpace=wrap;html=1;fontSize=16;" vertex="1" parent="1">
          <mxGeometry x="690" y="950" width="180" height="220" as="geometry" />
        </mxCell>
        <mxCell id="P7jncR9pwjDkhTuc6ath-39" style="edgeStyle=orthogonalEdgeStyle;rounded=0;orthogonalLoop=1;jettySize=auto;html=1;entryX=0.5;entryY=0;entryDx=0;entryDy=0;elbow=vertical;" edge="1" parent="1" source="P7jncR9pwjDkhTuc6ath-26" target="P7jncR9pwjDkhTuc6ath-31">
          <mxGeometry relative="1" as="geometry" />
        </mxCell>
        <mxCell id="P7jncR9pwjDkhTuc6ath-41" style="edgeStyle=orthogonalEdgeStyle;rounded=0;orthogonalLoop=1;jettySize=auto;html=1;elbow=vertical;" edge="1" parent="1" source="P7jncR9pwjDkhTuc6ath-26" target="P7jncR9pwjDkhTuc6ath-37">
          <mxGeometry relative="1" as="geometry" />
        </mxCell>
        <mxCell id="P7jncR9pwjDkhTuc6ath-26" value="Entered the&amp;nbsp;&lt;div&gt;&quot;inner circle&quot;&lt;/div&gt;" style="rounded=0;whiteSpace=wrap;html=1;fontSize=16;" vertex="1" parent="1">
          <mxGeometry x="370" y="800" width="180" height="80" as="geometry" />
        </mxCell>
        <mxCell id="P7jncR9pwjDkhTuc6ath-27" value="Everything ok" style="text;html=1;align=center;verticalAlign=middle;whiteSpace=wrap;rounded=0;fontSize=17;" vertex="1" parent="1">
          <mxGeometry x="850" y="920" width="120" height="30" as="geometry" />
        </mxCell>
        <mxCell id="P7jncR9pwjDkhTuc6ath-30" value="Distance reached" style="text;html=1;align=center;verticalAlign=middle;whiteSpace=wrap;rounded=0;fontSize=17;" vertex="1" parent="1">
          <mxGeometry x="570" y="800" width="120" height="30" as="geometry" />
        </mxCell>
        <mxCell id="P7jncR9pwjDkhTuc6ath-102" value="&lt;font style=&quot;font-size: 19px;&quot;&gt;Motivation decrease&lt;/font&gt;" style="edgeStyle=orthogonalEdgeStyle;rounded=0;orthogonalLoop=1;jettySize=auto;html=1;elbow=vertical;" edge="1" parent="1" source="P7jncR9pwjDkhTuc6ath-31" target="P7jncR9pwjDkhTuc6ath-17">
          <mxGeometry relative="1" as="geometry">
            <Array as="points">
              <mxPoint x="460" y="1270" />
              <mxPoint x="1585" y="1270" />
            </Array>
          </mxGeometry>
        </mxCell>
        <mxCell id="P7jncR9pwjDkhTuc6ath-31" value="Theft failed" style="rounded=0;whiteSpace=wrap;html=1;fontSize=16;fillColor=#a20025;fontColor=#ffffff;strokeColor=#6F0000;" vertex="1" parent="1">
          <mxGeometry x="370" y="949" width="180" height="80" as="geometry" />
        </mxCell>
        <mxCell id="P7jncR9pwjDkhTuc6ath-33" value="Thief spotted" style="text;html=1;align=center;verticalAlign=middle;whiteSpace=wrap;rounded=0;fontSize=17;" vertex="1" parent="1">
          <mxGeometry x="470" y="900" width="120" height="30" as="geometry" />
        </mxCell>
        <mxCell id="P7jncR9pwjDkhTuc6ath-36" style="edgeStyle=orthogonalEdgeStyle;rounded=0;orthogonalLoop=1;jettySize=auto;html=1;elbow=vertical;shape=link;" edge="1" parent="1">
          <mxGeometry relative="1" as="geometry">
            <mxPoint x="280" y="913.047619047619" as="sourcePoint" />
            <mxPoint x="460" y="913" as="targetPoint" />
          </mxGeometry>
        </mxCell>
        <mxCell id="P7jncR9pwjDkhTuc6ath-35" value="How are thief spotted in the inner circle?&lt;div&gt;&lt;br&gt;&lt;/div&gt;&lt;div&gt;- Some random chance (self defense, number of vision cones)&lt;br&gt;&lt;/div&gt;&lt;div&gt;&lt;br&gt;&lt;div&gt;(((- Number of other people in the close proximity (&quot;stand out effect&quot;))))&lt;/div&gt;&lt;/div&gt;&lt;div&gt;&lt;br&gt;&lt;/div&gt;&lt;div&gt;((((- Approach angle (peripheral vision?))))&lt;/div&gt;&lt;div&gt;&lt;br&gt;&lt;/div&gt;&lt;div&gt;&lt;br&gt;&lt;/div&gt;" style="shape=process;whiteSpace=wrap;html=1;backgroundOutline=1;fontSize=16;fillColor=#1ba1e2;fontColor=#ffffff;strokeColor=#006EAF;" vertex="1" parent="1">
          <mxGeometry x="50" y="740" width="230" height="320" as="geometry" />
        </mxCell>
        <mxCell id="P7jncR9pwjDkhTuc6ath-43" style="rounded=0;orthogonalLoop=1;jettySize=auto;html=1;entryX=0;entryY=1;entryDx=0;entryDy=0;elbow=vertical;" edge="1" parent="1" source="P7jncR9pwjDkhTuc6ath-37" target="P7jncR9pwjDkhTuc6ath-1">
          <mxGeometry relative="1" as="geometry" />
        </mxCell>
        <mxCell id="P7jncR9pwjDkhTuc6ath-37" value="Theft succesful" style="rounded=0;whiteSpace=wrap;html=1;fontSize=16;fillColor=#008a00;fontColor=#ffffff;strokeColor=#005700;" vertex="1" parent="1">
          <mxGeometry x="370" y="656" width="180" height="80" as="geometry" />
        </mxCell>
        <mxCell id="P7jncR9pwjDkhTuc6ath-42" value="Thief undetected" style="text;html=1;align=center;verticalAlign=middle;whiteSpace=wrap;rounded=0;fontSize=17;" vertex="1" parent="1">
          <mxGeometry x="450" y="756" width="120" height="30" as="geometry" />
        </mxCell>
        <mxCell id="P7jncR9pwjDkhTuc6ath-45" style="rounded=0;orthogonalLoop=1;jettySize=auto;html=1;entryX=1;entryY=1;entryDx=0;entryDy=0;elbow=vertical;" edge="1" parent="1" source="P7jncR9pwjDkhTuc6ath-44" target="P7jncR9pwjDkhTuc6ath-1">
          <mxGeometry relative="1" as="geometry" />
        </mxCell>
        <mxCell id="P7jncR9pwjDkhTuc6ath-44" value="Theft aborted" style="rounded=0;whiteSpace=wrap;html=1;fontSize=16;fillColor=#f0a30a;fontColor=#000000;strokeColor=#BD7000;" vertex="1" parent="1">
          <mxGeometry x="1050" y="910" width="180" height="80" as="geometry" />
        </mxCell>
        <mxCell id="P7jncR9pwjDkhTuc6ath-47" value="Something wrong" style="text;html=1;align=center;verticalAlign=middle;whiteSpace=wrap;rounded=0;fontSize=17;" vertex="1" parent="1">
          <mxGeometry x="960" y="1140" width="120" height="30" as="geometry" />
        </mxCell>
        <mxCell id="P7jncR9pwjDkhTuc6ath-48" value="Citizens" style="text;html=1;align=center;verticalAlign=middle;whiteSpace=wrap;rounded=0;fontSize=38;" vertex="1" parent="1">
          <mxGeometry x="2600" y="70" width="160" height="40" as="geometry" />
        </mxCell>
        <mxCell id="P7jncR9pwjDkhTuc6ath-51" style="edgeStyle=orthogonalEdgeStyle;rounded=0;orthogonalLoop=1;jettySize=auto;html=1;elbow=vertical;" edge="1" parent="1" source="P7jncR9pwjDkhTuc6ath-49" target="P7jncR9pwjDkhTuc6ath-37">
          <mxGeometry relative="1" as="geometry" />
        </mxCell>
        <mxCell id="P7jncR9pwjDkhTuc6ath-49" value="if resisted, then motivation drops" style="shape=process;whiteSpace=wrap;html=1;backgroundOutline=1;fontSize=16;fillColor=#1ba1e2;fontColor=#ffffff;strokeColor=#006EAF;" vertex="1" parent="1">
          <mxGeometry x="40" y="400" width="230" height="120" as="geometry" />
        </mxCell>
        <mxCell id="P7jncR9pwjDkhTuc6ath-57" style="edgeStyle=orthogonalEdgeStyle;rounded=0;orthogonalLoop=1;jettySize=auto;html=1;elbow=vertical;" edge="1" parent="1" source="P7jncR9pwjDkhTuc6ath-55" target="P7jncR9pwjDkhTuc6ath-56">
          <mxGeometry relative="1" as="geometry" />
        </mxCell>
        <mxCell id="P7jncR9pwjDkhTuc6ath-55" value="Roaming randomly&lt;div&gt;(looking for points of interests)&lt;/div&gt;" style="rounded=0;whiteSpace=wrap;html=1;fontSize=16;" vertex="1" parent="1">
          <mxGeometry x="2560" y="260" width="180" height="80" as="geometry" />
        </mxCell>
        <mxCell id="P7jncR9pwjDkhTuc6ath-89" style="edgeStyle=orthogonalEdgeStyle;rounded=0;orthogonalLoop=1;jettySize=auto;html=1;elbow=vertical;" edge="1" parent="1" source="P7jncR9pwjDkhTuc6ath-56" target="P7jncR9pwjDkhTuc6ath-88">
          <mxGeometry relative="1" as="geometry" />
        </mxCell>
        <mxCell id="P7jncR9pwjDkhTuc6ath-56" value="Activity participiation&lt;div&gt;(random time&lt;span style=&quot;color: rgba(0, 0, 0, 0); font-family: monospace; font-size: 0px; text-align: start; text-wrap: nowrap; background-color: initial;&quot;&gt;%3CmxGraphModel%3E%3Croot%3E%3CmxCell%20id%3D%220%22%2F%3E%3CmxCell%20id%3D%221%22%20parent%3D%220%22%2F%3E%3CmxCell%20id%3D%222%22%20value%3D%22Locking%20onto%20target%22%20style%3D%22rounded%3D0%3BwhiteSpace%3Dwrap%3Bhtml%3D1%3BfontSize%3D16%3B%22%20vertex%3D%221%22%20parent%3D%221%22%3E%3CmxGeometry%20x%3D%22690%22%20y%3D%22650%22%20width%3D%22180%22%20height%3D%2280%22%20as%3D%22geometry%22%2F%3E%3C%2FmxCell%3E%3C%2Froot%3E%3C%2FmxGraphModel%3E&lt;/span&gt;&lt;span style=&quot;background-color: initial;&quot;&gt;, random offset),&lt;/span&gt;&lt;/div&gt;" style="rounded=0;whiteSpace=wrap;html=1;fontSize=16;" vertex="1" parent="1">
          <mxGeometry x="2560" y="560" width="180" height="150" as="geometry" />
        </mxCell>
        <mxCell id="P7jncR9pwjDkhTuc6ath-58" value="Env" style="text;html=1;align=center;verticalAlign=middle;whiteSpace=wrap;rounded=0;fontSize=38;" vertex="1" parent="1">
          <mxGeometry x="3690" y="20" width="160" height="40" as="geometry" />
        </mxCell>
        <mxCell id="P7jncR9pwjDkhTuc6ath-61" style="edgeStyle=orthogonalEdgeStyle;rounded=0;orthogonalLoop=1;jettySize=auto;html=1;entryX=0.5;entryY=0;entryDx=0;entryDy=0;elbow=vertical;" edge="1" parent="1" source="P7jncR9pwjDkhTuc6ath-59" target="P7jncR9pwjDkhTuc6ath-60">
          <mxGeometry relative="1" as="geometry" />
        </mxCell>
        <mxCell id="P7jncR9pwjDkhTuc6ath-63" style="edgeStyle=orthogonalEdgeStyle;rounded=0;orthogonalLoop=1;jettySize=auto;html=1;elbow=vertical;" edge="1" parent="1" source="P7jncR9pwjDkhTuc6ath-59" target="P7jncR9pwjDkhTuc6ath-62">
          <mxGeometry relative="1" as="geometry" />
        </mxCell>
        <mxCell id="P7jncR9pwjDkhTuc6ath-59" value="Random?&lt;div&gt;We ask profs.&lt;/div&gt;" style="rounded=0;whiteSpace=wrap;html=1;fontSize=16;" vertex="1" parent="1">
          <mxGeometry x="3680" y="140" width="180" height="80" as="geometry" />
        </mxCell>
        <mxCell id="P7jncR9pwjDkhTuc6ath-68" style="edgeStyle=orthogonalEdgeStyle;rounded=0;orthogonalLoop=1;jettySize=auto;html=1;elbow=vertical;" edge="1" parent="1" source="P7jncR9pwjDkhTuc6ath-60" target="P7jncR9pwjDkhTuc6ath-67">
          <mxGeometry relative="1" as="geometry" />
        </mxCell>
        <mxCell id="P7jncR9pwjDkhTuc6ath-60" value="Randomly" style="rounded=0;whiteSpace=wrap;html=1;fontSize=16;" vertex="1" parent="1">
          <mxGeometry x="3450" y="270" width="180" height="80" as="geometry" />
        </mxCell>
        <mxCell id="P7jncR9pwjDkhTuc6ath-70" style="edgeStyle=orthogonalEdgeStyle;rounded=0;orthogonalLoop=1;jettySize=auto;html=1;elbow=vertical;" edge="1" parent="1" source="P7jncR9pwjDkhTuc6ath-62" target="P7jncR9pwjDkhTuc6ath-69">
          <mxGeometry relative="1" as="geometry" />
        </mxCell>
        <mxCell id="P7jncR9pwjDkhTuc6ath-72" style="edgeStyle=orthogonalEdgeStyle;rounded=0;orthogonalLoop=1;jettySize=auto;html=1;elbow=vertical;" edge="1" parent="1" source="P7jncR9pwjDkhTuc6ath-62" target="P7jncR9pwjDkhTuc6ath-71">
          <mxGeometry relative="1" as="geometry" />
        </mxCell>
        <mxCell id="P7jncR9pwjDkhTuc6ath-62" value="Fixed layouts&lt;div&gt;(we will decide later then)&lt;/div&gt;" style="rounded=0;whiteSpace=wrap;html=1;fontSize=16;" vertex="1" parent="1">
          <mxGeometry x="3950" y="270" width="180" height="80" as="geometry" />
        </mxCell>
        <mxCell id="P7jncR9pwjDkhTuc6ath-66" style="edgeStyle=orthogonalEdgeStyle;rounded=0;orthogonalLoop=1;jettySize=auto;html=1;elbow=vertical;" edge="1" parent="1" source="P7jncR9pwjDkhTuc6ath-64" target="P7jncR9pwjDkhTuc6ath-65">
          <mxGeometry relative="1" as="geometry" />
        </mxCell>
        <mxCell id="P7jncR9pwjDkhTuc6ath-64" value="Transparency" style="rounded=0;whiteSpace=wrap;html=1;fontSize=16;" vertex="1" parent="1">
          <mxGeometry x="3740" y="710" width="180" height="80" as="geometry" />
        </mxCell>
        <mxCell id="P7jncR9pwjDkhTuc6ath-65" value="Field vision" style="rounded=0;whiteSpace=wrap;html=1;fontSize=16;" vertex="1" parent="1">
          <mxGeometry x="3740" y="830" width="180" height="80" as="geometry" />
        </mxCell>
        <mxCell id="P7jncR9pwjDkhTuc6ath-74" style="edgeStyle=orthogonalEdgeStyle;rounded=0;orthogonalLoop=1;jettySize=auto;html=1;elbow=vertical;" edge="1" parent="1" source="P7jncR9pwjDkhTuc6ath-67" target="P7jncR9pwjDkhTuc6ath-73">
          <mxGeometry relative="1" as="geometry" />
        </mxCell>
        <mxCell id="P7jncR9pwjDkhTuc6ath-67" value="Blind spots" style="rounded=0;whiteSpace=wrap;html=1;fontSize=16;" vertex="1" parent="1">
          <mxGeometry x="3450" y="420" width="180" height="80" as="geometry" />
        </mxCell>
        <mxCell id="P7jncR9pwjDkhTuc6ath-69" value="Open space" style="rounded=0;whiteSpace=wrap;html=1;fontSize=16;" vertex="1" parent="1">
          <mxGeometry x="4230" y="190" width="180" height="80" as="geometry" />
        </mxCell>
        <mxCell id="P7jncR9pwjDkhTuc6ath-71" value="Corrides" style="rounded=0;whiteSpace=wrap;html=1;fontSize=16;" vertex="1" parent="1">
          <mxGeometry x="4230" y="330" width="180" height="80" as="geometry" />
        </mxCell>
        <mxCell id="P7jncR9pwjDkhTuc6ath-73" value="(almost) Enclosed spots / open map" style="rounded=0;whiteSpace=wrap;html=1;fontSize=16;" vertex="1" parent="1">
          <mxGeometry x="3440" y="570" width="200" height="80" as="geometry" />
        </mxCell>
        <mxCell id="P7jncR9pwjDkhTuc6ath-75" value="Lightning" style="rounded=0;whiteSpace=wrap;html=1;fontSize=16;fillColor=#fad9d5;strokeColor=#ae4132;" vertex="1" parent="1">
          <mxGeometry x="3740" y="576" width="200" height="80" as="geometry" />
        </mxCell>
        <mxCell id="P7jncR9pwjDkhTuc6ath-79" value="Cul de sac" style="rounded=0;whiteSpace=wrap;html=1;fontSize=16;" vertex="1" parent="1">
          <mxGeometry x="4540" y="270" width="180" height="80" as="geometry" />
        </mxCell>
        <mxCell id="P7jncR9pwjDkhTuc6ath-80" value="" style="triangle;whiteSpace=wrap;html=1;" vertex="1" parent="1">
          <mxGeometry x="2430" y="1244" width="360" height="250" as="geometry" />
        </mxCell>
        <mxCell id="P7jncR9pwjDkhTuc6ath-81" value="" style="ellipse;whiteSpace=wrap;html=1;aspect=fixed;" vertex="1" parent="1">
          <mxGeometry x="2790" y="1329" width="80" height="80" as="geometry" />
        </mxCell>
        <mxCell id="P7jncR9pwjDkhTuc6ath-83" value="" style="ellipse;whiteSpace=wrap;html=1;aspect=fixed;" vertex="1" parent="1">
          <mxGeometry x="2360" y="1310" width="80" height="80" as="geometry" />
        </mxCell>
        <mxCell id="P7jncR9pwjDkhTuc6ath-88" value="Grouping makes people slow" style="rounded=0;whiteSpace=wrap;html=1;fontSize=16;" vertex="1" parent="1">
          <mxGeometry x="2920" y="480" width="180" height="80" as="geometry" />
        </mxCell>
        <mxCell id="P7jncR9pwjDkhTuc6ath-90" value="Roaming randomly&lt;div&gt;(looking for points of interests)&lt;/div&gt;" style="rounded=0;whiteSpace=wrap;html=1;fontSize=16;" vertex="1" parent="1">
          <mxGeometry x="2560" y="880" width="180" height="80" as="geometry" />
        </mxCell>
        <mxCell id="P7jncR9pwjDkhTuc6ath-92" value="avoid&amp;nbsp; field if visions" style="rounded=0;whiteSpace=wrap;html=1;fontSize=16;" vertex="1" parent="1">
          <mxGeometry x="790" y="356" width="180" height="80" as="geometry" />
        </mxCell>
        <mxCell id="P7jncR9pwjDkhTuc6ath-94" style="edgeStyle=orthogonalEdgeStyle;rounded=0;orthogonalLoop=1;jettySize=auto;html=1;elbow=vertical;" edge="1" parent="1" source="P7jncR9pwjDkhTuc6ath-93" target="P7jncR9pwjDkhTuc6ath-56">
          <mxGeometry relative="1" as="geometry" />
        </mxCell>
        <mxCell id="P7jncR9pwjDkhTuc6ath-93" value="Attention grabing&lt;div&gt;p = looking on the target&lt;/div&gt;" style="rounded=0;whiteSpace=wrap;html=1;fontSize=16;" vertex="1" parent="1">
          <mxGeometry x="2200" y="590" width="180" height="90" as="geometry" />
        </mxCell>
        <mxCell id="P7jncR9pwjDkhTuc6ath-95" value="Twitchness factor (ramdom offset of visoon)" style="rounded=0;whiteSpace=wrap;html=1;fontSize=16;" vertex="1" parent="1">
          <mxGeometry x="2430" y="400" width="180" height="90" as="geometry" />
        </mxCell>
        <mxCell id="P7jncR9pwjDkhTuc6ath-96" style="edgeStyle=orthogonalEdgeStyle;rounded=0;orthogonalLoop=1;jettySize=auto;html=1;exitX=0;exitY=0.75;exitDx=0;exitDy=0;entryX=0;entryY=1;entryDx=0;entryDy=0;elbow=vertical;" edge="1" parent="1" source="P7jncR9pwjDkhTuc6ath-92" target="P7jncR9pwjDkhTuc6ath-92">
          <mxGeometry relative="1" as="geometry" />
        </mxCell>
        <mxCell id="P7jncR9pwjDkhTuc6ath-97" value="Popularity factor&lt;div&gt;(p = people looking at them)&lt;/div&gt;" style="rounded=0;whiteSpace=wrap;html=1;fontSize=16;" vertex="1" parent="1">
          <mxGeometry x="2690" y="400" width="180" height="90" as="geometry" />
        </mxCell>
        <mxCell id="P7jncR9pwjDkhTuc6ath-98" value="Density/Geometry of points of interests" style="rounded=0;whiteSpace=wrap;html=1;fontSize=16;" vertex="1" parent="1">
          <mxGeometry x="3750" y="440" width="180" height="80" as="geometry" />
        </mxCell>
        <mxCell id="P7jncR9pwjDkhTuc6ath-99" value="Size factor" style="rounded=0;whiteSpace=wrap;html=1;fontSize=16;fillColor=#fad9d5;strokeColor=#ae4132;" vertex="1" parent="1">
          <mxGeometry x="1830" y="10" width="180" height="90" as="geometry" />
        </mxCell>
        <mxCell id="P7jncR9pwjDkhTuc6ath-105" value="" style="edgeStyle=orthogonalEdgeStyle;rounded=0;orthogonalLoop=1;jettySize=auto;html=1;elbow=vertical;" edge="1" parent="1" source="P7jncR9pwjDkhTuc6ath-103" target="P7jncR9pwjDkhTuc6ath-83">
          <mxGeometry relative="1" as="geometry" />
        </mxCell>
        <mxCell id="P7jncR9pwjDkhTuc6ath-103" value="" style="triangle;whiteSpace=wrap;html=1;rotation=-92;" vertex="1" parent="1">
          <mxGeometry x="2220" y="1060" width="360" height="250" as="geometry" />
        </mxCell>
        <mxCell id="P7jncR9pwjDkhTuc6ath-104" value="" style="ellipse;whiteSpace=wrap;html=1;aspect=fixed;" vertex="1" parent="1">
          <mxGeometry x="2360" y="950" width="80" height="80" as="geometry" />
        </mxCell>
        <mxCell id="P7jncR9pwjDkhTuc6ath-106" value="We focus on the behaviour before the theft occurs not after" style="rounded=0;whiteSpace=wrap;html=1;fontSize=16;" vertex="1" parent="1">
          <mxGeometry x="2500" y="-120" width="180" height="80" as="geometry" />
        </mxCell>
        <mxCell id="P7jncR9pwjDkhTuc6ath-107" value="Motivation-inspiration" style="rounded=0;whiteSpace=wrap;html=1;fontSize=16;" vertex="1" parent="1">
          <mxGeometry x="5540" y="240" width="180" height="80" as="geometry" />
        </mxCell>
        <mxCell id="P7jncR9pwjDkhTuc6ath-108" value="Basic implementation" style="rounded=0;whiteSpace=wrap;html=1;fontSize=16;" vertex="1" parent="1">
          <mxGeometry x="5540" y="320" width="180" height="80" as="geometry" />
        </mxCell>
        <mxCell id="P7jncR9pwjDkhTuc6ath-109" value="RQ, Hypotheses" style="rounded=0;whiteSpace=wrap;html=1;fontSize=16;" vertex="1" parent="1">
          <mxGeometry x="5540" y="400" width="180" height="80" as="geometry" />
        </mxCell>
        <mxCell id="P7jncR9pwjDkhTuc6ath-110" value="TA question&lt;div&gt;1) Random vs Predetermined&lt;/div&gt;" style="rounded=0;whiteSpace=wrap;html=1;fontSize=16;" vertex="1" parent="1">
          <mxGeometry x="5530" y="540" width="180" height="80" as="geometry" />
        </mxCell>
      </root>
    </mxGraphModel>
  </diagram>
</mxfile>
